<svg width="86" height="86" viewBox="0 0 86 86" fill="none" xmlns="http://www.w3.org/2000/svg">
<path d="M25.0815 35.8343C25.0815 30.7675 25.0815 28.234 26.6582 26.661C28.2277 25.0843 30.7611 25.0843 35.8315 25.0843H50.1649C55.2317 25.0843 57.7651 25.0843 59.3382 26.661C60.9149 28.234 60.9149 30.7675 60.9149 35.8343V50.1676C60.9149 55.2345 60.9149 57.7679 59.3382 59.341C57.7651 60.9176 55.2317 60.9176 50.1649 60.9176H35.8315C30.7647 60.9176 28.2313 60.9176 26.6582 59.341C25.0815 57.7715 25.0815 55.238 25.0815 50.1676V35.8343Z" stroke="#F9DD55" stroke-width="5.375"/>
<path d="M44.5366 35.8343L39.416 43.001H46.5827L41.4621 50.1676" stroke="white" stroke-width="5.375" stroke-linecap="round" stroke-linejoin="round"/>
<path d="M14.3315 43.001C14.3315 29.4882 14.3315 22.73 18.5312 18.534C22.7273 14.3343 29.4855 14.3343 42.9982 14.3343C56.511 14.3343 63.2691 14.3343 67.4652 18.534C71.6649 22.73 71.6649 29.4882 71.6649 43.001C71.6649 56.5137 71.6649 63.2719 67.4652 67.468C63.2691 71.6676 56.511 71.6676 42.9982 71.6676C29.4855 71.6676 22.7273 71.6676 18.5312 67.468C14.3315 63.2719 14.3315 56.5137 14.3315 43.001Z" stroke="white" stroke-width="5.375"/>
<path opacity="0.5" d="M14.3324 43.0005H7.16577M78.8324 43.0005H71.6658M14.3324 32.2505H7.16577M78.8324 32.2505H71.6658M14.3324 53.7505H7.16577M78.8324 53.7505H71.6658M42.9991 71.6672V78.8338M42.9991 7.16718V14.3338M32.2491 71.6672V78.8338M32.2491 7.16718V14.3338M53.7491 71.6672V78.8338M53.7491 7.16718V14.3338" stroke="white" stroke-width="5.375" stroke-linecap="round"/>
</svg>
