<svg width="86" height="86" viewBox="0 0 86 86" fill="none" xmlns="http://www.w3.org/2000/svg">
<path d="M42.9979 57.3333C22.3579 57.3333 18.7029 36.7649 18.0579 20.4464C17.8751 15.9099 17.7855 13.6381 19.4912 11.5419C21.1933 9.44203 23.2322 9.09803 27.3136 8.41003C32.4981 7.56034 37.7443 7.14443 42.9979 7.16661C49.3905 7.16661 54.6545 7.7292 58.6821 8.41003C62.7635 9.09803 64.8025 9.44203 66.5081 11.5419C68.2138 13.6417 68.1206 15.9099 67.9415 20.4464C67.2965 36.7614 63.6415 57.3333 43.0015 57.3333H42.9979Z" stroke="white" stroke-width="5.125"/>
<path opacity="0.5" d="M43 57.3329V68.0829" stroke="white" stroke-width="5.125" stroke-linecap="round"/>
<path d="M55.5396 78.8334H30.4563L31.6746 72.7561C31.8369 71.9441 32.2755 71.2133 32.9157 70.6881C33.5559 70.1629 34.3582 69.8756 35.1863 69.8751H50.8096C51.6377 69.8756 52.4401 70.1629 53.0803 70.6881C53.7205 71.2133 54.159 71.9441 54.3213 72.7561L55.5396 78.8334Z" stroke="white" stroke-width="5.125" stroke-linecap="round" stroke-linejoin="round"/>
<path opacity="0.5" d="M68.0822 17.9172L71.4828 19.0496C75.0303 20.2321 76.804 20.8233 77.8181 22.2316C78.8322 23.6398 78.8322 25.5103 78.8322 29.2477V29.5093C78.8322 32.591 78.8322 34.1354 78.0904 35.3967C77.3487 36.6581 75.9978 37.407 73.3031 38.9084L62.7072 44.7922M17.9155 17.9172L14.5149 19.0496C10.9674 20.2321 9.19369 20.8233 8.17961 22.2316C7.16553 23.6398 7.16553 25.5139 7.16553 29.2477V29.5093C7.16553 32.591 7.16553 34.1354 7.90728 35.3967C8.64903 36.6581 9.99994 37.407 12.6946 38.9084L23.2905 44.7922" stroke="white" stroke-width="5.125"/>
<path d="M39.9379 21.583C41.2996 19.1356 41.9804 17.9172 42.9981 17.9172C44.0157 17.9172 44.6966 19.1356 46.0582 21.583L46.4094 22.2137C46.7964 22.9088 46.9899 23.2528 47.2909 23.4822C47.5955 23.7115 47.9717 23.7975 48.7242 23.9659L49.4051 24.1236C52.0496 24.722 53.3718 25.0194 53.6872 26.0299C54.0025 27.044 53.0995 28.0975 51.2971 30.2045L50.8312 30.7492C50.3188 31.3476 50.0608 31.645 49.9462 32.0177C49.8315 32.3903 49.8709 32.7881 49.9462 33.5872L50.0178 34.3146C50.2902 37.1275 50.4263 38.5357 49.6057 39.1592C48.7816 39.7827 47.5417 39.213 45.0657 38.0735L44.4278 37.7797C43.7219 37.4572 43.3707 37.2959 42.9981 37.2959C42.6254 37.2959 42.2742 37.4572 41.5683 37.7797L40.9305 38.0735C38.4544 39.2166 37.2146 39.7827 36.3904 39.1592C35.5662 38.5357 35.706 37.1275 35.9783 34.3146L36.05 33.5872C36.1252 32.7881 36.1647 32.3903 36.05 32.0177C35.9353 31.6486 35.6773 31.3476 35.1649 30.7492L34.6991 30.2045C32.8967 28.0975 31.9937 27.044 32.309 26.0299C32.6243 25.0194 33.9466 24.722 36.5911 24.1236L37.2719 23.9659C38.0244 23.7975 38.4007 23.7151 38.7052 23.4822C39.0062 23.2528 39.1997 22.9088 39.5867 22.2137L39.9379 21.583Z" stroke="#E7BE4E" stroke-width="5.125"/>
<path opacity="0.5" d="M64.5 78.8329H21.5" stroke="white" stroke-width="5.125" stroke-linecap="round"/>
</svg>
