<svg width="237" height="48" viewBox="0 0 237 48" fill="none" xmlns="http://www.w3.org/2000/svg">
<path d="M34.0433 29.775C34.0433 31.6065 32.5465 33.075 30.6797 33.075C28.8129 33.075 27.3161 31.6065 27.3161 29.775C27.3161 27.9435 28.8297 26.475 30.6797 26.475C32.5297 26.475 34.0433 27.96 34.0433 29.775ZM18.907 26.475C17.057 26.475 15.5433 27.96 15.5433 29.775C15.5433 31.59 17.057 33.075 18.907 33.075C20.757 33.075 22.2706 31.6065 22.2706 29.775C22.2706 27.9435 20.7738 26.475 18.907 26.475ZM43.2933 28.95V33.9C43.2933 34.8075 42.5365 35.55 41.6115 35.55H39.9297V37.2C39.9297 39.0315 38.4329 40.5 36.5661 40.5H13.0206C11.1706 40.5 9.65697 39.0315 9.65697 37.2V35.55H7.97515C7.05015 35.55 6.29333 34.8075 6.29333 33.9V28.95C6.29333 28.0425 7.05015 27.3 7.97515 27.3H9.65697C9.65697 20.9145 14.9211 15.75 21.4297 15.75H23.1115V13.6545C22.1024 13.0935 21.4297 12.021 21.4297 10.8C21.4297 8.985 22.9433 7.5 24.7933 7.5C26.6433 7.5 28.157 8.985 28.157 10.8C28.157 12.021 27.4842 13.0935 26.4752 13.6545V15.75H28.157C34.6656 15.75 39.9297 20.9145 39.9297 27.3H41.6115C42.5365 27.3 43.2933 28.0425 43.2933 28.95ZM39.9297 30.6H36.5661V27.3C36.5661 22.746 32.7988 19.05 28.157 19.05H21.4297C16.7879 19.05 13.0206 22.746 13.0206 27.3V30.6H9.65697V32.25H13.0206V37.2H36.5661V32.25H39.9297V30.6Z" fill="white"/>
<path d="M60.5095 38V8.85156H78.7874C82.511 8.85156 85.4005 9.67236 87.4558 11.314C89.5111 12.9556 90.5388 15.3979 90.5388 18.6411C90.5388 21.8976 89.4978 24.3934 87.4158 26.1284C85.3337 27.8501 82.4309 28.751 78.7073 28.8311H70.2791V38H60.5095ZM70.199 22.5449H77.0256C78.2535 22.5449 79.1677 22.2513 79.7683 21.6641C80.3689 21.0635 80.6692 20.2093 80.6692 19.1016C80.6825 17.8604 80.3889 16.9728 79.7883 16.439C79.1877 15.8918 78.2668 15.6182 77.0256 15.6182H70.199V22.5449ZM81.7703 38L74.3831 25.2876L83.4719 24.0264L92.5208 38H81.7703ZM93.4817 28.3105V27.8901C93.4817 24.7404 94.823 22.238 97.5056 20.3828C100.188 18.5277 103.712 17.6001 108.076 17.6001C112.454 17.6001 115.964 18.5277 118.606 20.3828C121.262 22.238 122.59 24.7404 122.59 27.8901V28.3105C122.59 31.527 121.262 34.0495 118.606 35.8779C115.95 37.693 112.44 38.6006 108.076 38.6006C103.712 38.6006 100.188 37.693 97.5056 35.8779C94.823 34.0495 93.4817 31.527 93.4817 28.3105ZM103.051 27.6499V28.6709C103.051 29.8587 103.485 30.7396 104.352 31.3135C105.233 31.874 106.468 32.1543 108.056 32.1543C109.644 32.1543 110.865 31.874 111.719 31.3135C112.587 30.7396 113.021 29.8521 113.021 28.6509V27.6499C113.021 26.4487 112.587 25.5745 111.719 25.0273C110.852 24.4668 109.631 24.1865 108.056 24.1865C106.481 24.1865 105.253 24.4668 104.372 25.0273C103.491 25.5879 103.051 26.4621 103.051 27.6499ZM125.773 38V8.1709H135.162V20.7432C135.883 19.9157 136.904 19.2284 138.225 18.6812C139.56 18.134 141.188 17.8604 143.11 17.8604C146.42 17.8604 149.103 18.7679 151.158 20.583C153.227 22.3981 154.261 24.8405 154.261 27.9102V28.3306C154.261 31.507 153.193 33.9961 151.058 35.7979C148.936 37.5996 146.26 38.5005 143.03 38.5005C141.162 38.5005 139.527 38.2469 138.125 37.7397C136.724 37.2326 135.736 36.652 135.162 35.998H135.142L135.082 38H125.773ZM135.122 30.2725C135.429 30.7262 136.03 31.1466 136.924 31.5337C137.832 31.9207 138.919 32.1143 140.187 32.1143C141.669 32.1143 142.79 31.8206 143.551 31.2334C144.311 30.6462 144.692 29.772 144.692 28.6108V27.75C144.692 26.6823 144.311 25.8348 143.551 25.2075C142.803 24.5802 141.609 24.2666 139.967 24.2666C138.766 24.2666 137.725 24.4735 136.844 24.8872C135.963 25.2876 135.389 25.7147 135.122 26.1685V30.2725ZM156.383 28.3105V27.8901C156.383 24.7404 157.724 22.238 160.407 20.3828C163.09 18.5277 166.613 17.6001 170.977 17.6001C175.355 17.6001 178.865 18.5277 181.508 20.3828C184.163 22.238 185.491 24.7404 185.491 27.8901V28.3105C185.491 31.527 184.163 34.0495 181.508 35.8779C178.852 37.693 175.342 38.6006 170.977 38.6006C166.613 38.6006 163.09 37.693 160.407 35.8779C157.724 34.0495 156.383 31.527 156.383 28.3105ZM165.952 27.6499V28.6709C165.952 29.8587 166.386 30.7396 167.254 31.3135C168.135 31.874 169.369 32.1543 170.957 32.1543C172.545 32.1543 173.767 31.874 174.621 31.3135C175.488 30.7396 175.922 29.8521 175.922 28.6509V27.6499C175.922 26.4487 175.488 25.5745 174.621 25.0273C173.753 24.4668 172.532 24.1865 170.957 24.1865C169.382 24.1865 168.155 24.4668 167.274 25.0273C166.393 25.5879 165.952 26.4621 165.952 27.6499ZM186.573 24.9873V18.3809H205.791V24.9873H186.573ZM190.677 30.9131V20.0825L190.897 19.7021V13.1558H199.986V28.8511C199.986 29.9722 200.253 30.7796 200.786 31.2734C201.32 31.7539 202.074 31.9941 203.049 31.9941C203.769 31.9941 204.343 31.9474 204.77 31.854C205.211 31.7606 205.618 31.6672 205.991 31.5737L206.252 37.6597C205.745 37.8465 204.997 38.0267 204.01 38.2002C203.035 38.387 201.654 38.4805 199.865 38.4805C197.076 38.4805 194.847 37.8332 193.179 36.5386C191.511 35.244 190.677 33.3688 190.677 30.9131ZM207.773 31.2935L216.302 31.3936V31.7739C216.302 32.508 216.742 32.9818 217.623 33.1953C218.517 33.3955 219.725 33.4956 221.246 33.4956C223.048 33.4956 224.269 33.4089 224.91 33.2354C225.551 33.0618 225.871 32.7349 225.871 32.2544C225.871 31.8273 225.524 31.5337 224.83 31.3735C224.136 31.2 222.501 30.9731 219.925 30.6929C215.054 30.3192 211.871 29.6252 210.376 28.6108C208.881 27.5965 208.134 26.1685 208.134 24.3267C208.134 22.1512 209.295 20.4829 211.617 19.3218C213.939 18.1606 217.162 17.5801 221.286 17.5801C225.304 17.5801 228.433 18.1807 230.676 19.3818C232.918 20.5697 234.045 22.2179 234.059 24.3267V24.8472H225.571V24.3867C225.571 23.8395 225.19 23.4258 224.429 23.1455C223.669 22.8652 222.468 22.7251 220.826 22.7251C219.251 22.7251 218.163 22.8118 217.563 22.9854C216.976 23.1589 216.682 23.4858 216.682 23.9663C216.682 24.3267 217.062 24.6069 217.823 24.8071C218.597 24.994 220.385 25.2209 223.188 25.4878C228.033 25.8348 231.196 26.4754 232.677 27.4097C234.159 28.3306 234.9 29.6785 234.9 31.4536C234.9 33.7358 233.752 35.4976 231.456 36.7388C229.174 37.98 225.864 38.6006 221.527 38.6006C217.162 38.6006 213.786 38.0267 211.397 36.8789C209.021 35.7178 207.82 34.0361 207.793 31.834L207.773 31.2935Z" fill="white"/>
</svg>
