<svg width="224" height="48" viewBox="0 0 224 48" fill="none" xmlns="http://www.w3.org/2000/svg">
<path d="M27.75 29.775C27.75 31.6065 26.2532 33.075 24.3864 33.075C22.5195 33.075 21.0227 31.6065 21.0227 29.775C21.0227 27.9435 22.5364 26.475 24.3864 26.475C26.2364 26.475 27.75 27.96 27.75 29.775ZM12.6136 26.475C10.7636 26.475 9.25 27.96 9.25 29.775C9.25 31.59 10.7636 33.075 12.6136 33.075C14.4636 33.075 15.9773 31.6065 15.9773 29.775C15.9773 27.9435 14.4805 26.475 12.6136 26.475ZM37 28.95V33.9C37 34.8075 36.2432 35.55 35.3182 35.55H33.6364V37.2C33.6364 39.0315 32.1395 40.5 30.2727 40.5H6.72727C4.87727 40.5 3.36364 39.0315 3.36364 37.2V35.55H1.68182C0.756818 35.55 0 34.8075 0 33.9V28.95C0 28.0425 0.756818 27.3 1.68182 27.3H3.36364C3.36364 20.9145 8.62773 15.75 15.1364 15.75H16.8182V13.6545C15.8091 13.0935 15.1364 12.021 15.1364 10.8C15.1364 8.985 16.65 7.5 18.5 7.5C20.35 7.5 21.8636 8.985 21.8636 10.8C21.8636 12.021 21.1909 13.0935 20.1818 13.6545V15.75H21.8636C28.3723 15.75 33.6364 20.9145 33.6364 27.3H35.3182C36.2432 27.3 37 28.0425 37 28.95ZM33.6364 30.6H30.2727V27.3C30.2727 22.746 26.5055 19.05 21.8636 19.05H15.1364C10.4945 19.05 6.72727 22.746 6.72727 27.3V30.6H3.36364V32.25H6.72727V37.2H30.2727V32.25H33.6364V30.6Z" fill="#F9DD55"/>
<path d="M47.9229 38V8.85156H66.2007C69.9243 8.85156 72.8138 9.67236 74.8691 11.314C76.9245 12.9556 77.9521 15.3979 77.9521 18.6411C77.9521 21.8976 76.9111 24.3934 74.8291 26.1284C72.7471 27.8501 69.8442 28.751 66.1206 28.8311H57.6924V38H47.9229ZM57.6123 22.5449H64.439C65.6668 22.5449 66.5811 22.2513 67.1816 21.6641C67.7822 21.0635 68.0825 20.2093 68.0825 19.1016C68.0959 17.8604 67.8022 16.9728 67.2017 16.439C66.6011 15.8918 65.6802 15.6182 64.439 15.6182H57.6123V22.5449ZM69.1836 38L61.7964 25.2876L70.8853 24.0264L79.9341 38H69.1836ZM80.895 28.3105V27.8901C80.895 24.7404 82.2363 22.238 84.9189 20.3828C87.6016 18.5277 91.125 17.6001 95.4893 17.6001C99.8669 17.6001 103.377 18.5277 106.02 20.3828C108.675 22.238 110.003 24.7404 110.003 27.8901V28.3105C110.003 31.527 108.675 34.0495 106.02 35.8779C103.364 37.693 99.8535 38.6006 95.4893 38.6006C91.125 38.6006 87.6016 37.693 84.9189 35.8779C82.2363 34.0495 80.895 31.527 80.895 28.3105ZM90.4644 27.6499V28.6709C90.4644 29.8587 90.8981 30.7396 91.7656 31.3135C92.6465 31.874 93.881 32.1543 95.4692 32.1543C97.0575 32.1543 98.2786 31.874 99.1328 31.3135C100 30.7396 100.434 29.8521 100.434 28.6509V27.6499C100.434 26.4487 100 25.5745 99.1328 25.0273C98.2653 24.4668 97.0441 24.1865 95.4692 24.1865C93.8944 24.1865 92.6665 24.4668 91.7856 25.0273C90.9048 25.5879 90.4644 26.4621 90.4644 27.6499ZM113.187 38V8.1709H122.576V20.7432C123.296 19.9157 124.317 19.2284 125.639 18.6812C126.973 18.134 128.602 17.8604 130.523 17.8604C133.833 17.8604 136.516 18.7679 138.571 20.583C140.64 22.3981 141.674 24.8405 141.674 27.9102V28.3306C141.674 31.507 140.607 33.9961 138.471 35.7979C136.349 37.5996 133.673 38.5005 130.443 38.5005C128.575 38.5005 126.94 38.2469 125.539 37.7397C124.137 37.2326 123.15 36.652 122.576 35.998H122.556L122.496 38H113.187ZM122.536 30.2725C122.843 30.7262 123.443 31.1466 124.337 31.5337C125.245 31.9207 126.333 32.1143 127.601 32.1143C129.082 32.1143 130.203 31.8206 130.964 31.2334C131.725 30.6462 132.105 29.772 132.105 28.6108V27.75C132.105 26.6823 131.725 25.8348 130.964 25.2075C130.216 24.5802 129.022 24.2666 127.38 24.2666C126.179 24.2666 125.138 24.4735 124.257 24.8872C123.376 25.2876 122.803 25.7147 122.536 26.1685V30.2725ZM143.796 28.3105V27.8901C143.796 24.7404 145.138 22.238 147.82 20.3828C150.503 18.5277 154.026 17.6001 158.391 17.6001C162.768 17.6001 166.278 18.5277 168.921 20.3828C171.577 22.238 172.905 24.7404 172.905 27.8901V28.3105C172.905 31.527 171.577 34.0495 168.921 35.8779C166.265 37.693 162.755 38.6006 158.391 38.6006C154.026 38.6006 150.503 37.693 147.82 35.8779C145.138 34.0495 143.796 31.527 143.796 28.3105ZM153.366 27.6499V28.6709C153.366 29.8587 153.799 30.7396 154.667 31.3135C155.548 31.874 156.782 32.1543 158.371 32.1543C159.959 32.1543 161.18 31.874 162.034 31.3135C162.902 30.7396 163.335 29.8521 163.335 28.6509V27.6499C163.335 26.4487 162.902 25.5745 162.034 25.0273C161.167 24.4668 159.945 24.1865 158.371 24.1865C156.796 24.1865 155.568 24.4668 154.687 25.0273C153.806 25.5879 153.366 26.4621 153.366 27.6499ZM173.986 24.9873V18.3809H193.205V24.9873H173.986ZM178.09 30.9131V20.0825L178.31 19.7021V13.1558H187.399V28.8511C187.399 29.9722 187.666 30.7796 188.2 31.2734C188.734 31.7539 189.488 31.9941 190.462 31.9941C191.183 31.9941 191.757 31.9474 192.184 31.854C192.624 31.7606 193.031 31.6672 193.405 31.5737L193.665 37.6597C193.158 37.8465 192.41 38.0267 191.423 38.2002C190.449 38.387 189.067 38.4805 187.279 38.4805C184.489 38.4805 182.261 37.8332 180.592 36.5386C178.924 35.244 178.09 33.3688 178.09 30.9131ZM195.187 31.2935L203.715 31.3936V31.7739C203.715 32.508 204.155 32.9818 205.036 33.1953C205.93 33.3955 207.138 33.4956 208.66 33.4956C210.461 33.4956 211.683 33.4089 212.323 33.2354C212.964 33.0618 213.284 32.7349 213.284 32.2544C213.284 31.8273 212.937 31.5337 212.243 31.3735C211.549 31.2 209.914 30.9731 207.338 30.6929C202.467 30.3192 199.284 29.6252 197.789 28.6108C196.294 27.5965 195.547 26.1685 195.547 24.3267C195.547 22.1512 196.708 20.4829 199.03 19.3218C201.353 18.1606 204.576 17.5801 208.7 17.5801C212.717 17.5801 215.847 18.1807 218.089 19.3818C220.331 20.5697 221.459 22.2179 221.472 24.3267V24.8472H212.984V24.3867C212.984 23.8395 212.604 23.4258 211.843 23.1455C211.082 22.8652 209.881 22.7251 208.239 22.7251C206.664 22.7251 205.577 22.8118 204.976 22.9854C204.389 23.1589 204.095 23.4858 204.095 23.9663C204.095 24.3267 204.476 24.6069 205.236 24.8071C206.01 24.994 207.799 25.2209 210.602 25.4878C215.446 25.8348 218.609 26.4754 220.091 27.4097C221.572 28.3306 222.313 29.6785 222.313 31.4536C222.313 33.7358 221.165 35.4976 218.87 36.7388C216.587 37.98 213.278 38.6006 208.94 38.6006C204.576 38.6006 201.199 38.0267 198.81 36.8789C196.434 35.7178 195.233 34.0361 195.207 31.834L195.187 31.2935Z" fill="white"/>
</svg>
