<svg width="407" height="396" viewBox="0 0 407 396" fill="none" xmlns="http://www.w3.org/2000/svg">
<path fill-rule="evenodd" clip-rule="evenodd" d="M197.735 96.6285C244.533 89.2939 297.228 85.3185 334.374 109.49C373.952 135.245 391.554 179.093 387.407 220.053C383.519 258.45 353.083 292.246 313.679 313.87C280.229 332.227 238.119 322.815 197.735 324.143C154.179 325.575 107.324 342.453 71.9677 321.82C33.6536 299.461 12.203 257.835 19.3703 220.053C26.0053 185.077 72.205 168.369 105.44 145.371C134.466 125.286 160.241 102.505 197.735 96.6285Z" stroke="white" stroke-width="3"/>
<g clip-path="url(#clip0_3_336)">
<path d="M335.002 190.254L330.896 178.848C327.702 180.217 324.052 178.392 323.14 175.198C321.771 172.004 323.596 168.354 326.79 167.442L322.227 155.123C319.033 156.492 315.383 154.667 314.471 151.473C313.102 148.279 314.927 144.629 318.121 143.717L314.015 132.31C310.821 133.679 307.171 131.854 306.258 128.66C304.89 125.467 306.715 121.817 309.908 120.904L305.802 109.498C302.608 110.41 299.415 109.042 298.046 106.304C285.727 107.673 273.408 100.829 269.302 88.5105L98.6645 149.648C103.683 163.792 96.3833 179.304 82.2395 184.779L115.546 275.573C129.69 270.554 145.202 277.854 150.677 291.998L320.858 229.948C316.296 217.629 321.315 204.398 331.808 197.554C330.44 194.817 331.808 191.167 335.002 190.254Z" fill="#E7BE4E"/>
<path d="M301.239 213.071L154.326 266.452C146.57 269.19 137.901 265.084 134.708 257.327L108.701 185.696C105.964 177.94 110.07 169.271 117.826 166.077L264.739 112.696C272.495 109.959 281.164 114.065 284.358 121.821L310.364 193.452C313.101 201.665 308.995 210.334 301.239 213.071ZM120.564 173.834C116.458 175.202 114.633 179.765 116.001 183.415L142.008 255.046C143.376 259.152 147.939 260.977 151.589 259.609L298.501 206.227C302.608 204.859 304.433 200.296 303.064 196.646L277.058 125.015C275.689 120.909 271.126 119.084 267.476 120.452L120.564 173.834Z" fill="#3F72D2"/>
<path d="M183.983 196.643L179.877 198.012C179.421 198.012 178.965 198.011 178.965 197.555L176.683 192.993L173.946 193.905L175.315 198.924C175.315 199.38 175.315 199.836 174.858 199.836L170.752 201.205C170.296 201.205 170.296 201.205 169.84 200.749L162.083 169.268C162.083 168.811 162.083 168.355 162.54 168.355L168.471 166.074C168.927 166.074 169.383 166.074 169.383 166.53L183.983 195.73C184.44 196.187 184.44 196.643 183.983 196.643ZM174.402 187.974L168.927 176.111H168.471L172.121 188.43L174.402 187.974ZM192.652 169.268L198.127 184.78C199.04 187.974 197.671 191.168 194.477 192.536L187.633 194.818C187.177 194.818 186.721 194.818 186.721 194.361L177.596 168.811C177.596 168.355 177.596 167.899 178.052 167.899L184.896 165.618C188.09 164.705 191.74 166.074 192.652 169.268ZM187.633 171.549C187.633 171.093 186.721 170.637 186.265 170.637L184.44 171.093L190.827 188.43L192.196 187.974C192.652 187.974 193.108 187.062 192.652 186.605L187.633 171.549ZM211.815 156.493L221.396 182.043C221.396 182.499 221.396 182.955 220.94 182.955L216.833 184.324C216.377 184.324 215.921 184.324 215.921 183.868L211.358 172.005L212.271 183.868C212.271 184.324 211.815 184.324 211.815 183.868L204.971 174.286L209.533 186.149C209.533 186.605 209.533 187.061 209.077 187.061L204.971 188.43C204.515 188.43 204.058 188.43 204.058 187.974L194.477 162.424C194.477 161.968 194.477 161.512 194.933 161.512L198.583 160.143C199.04 160.143 199.496 160.143 199.496 160.599L208.165 173.374L206.796 158.318C206.796 157.861 206.796 157.405 207.252 157.405L210.902 156.036C211.358 156.036 211.815 156.036 211.815 156.493ZM230.521 178.849C230.521 179.305 230.521 179.762 230.065 179.762L225.958 181.13C225.502 181.13 225.046 181.13 225.046 180.674L215.921 155.124C215.921 154.668 215.921 154.211 216.377 154.211L220.483 152.843C220.94 152.843 221.396 152.843 221.396 153.299L230.521 178.849ZM237.365 147.368L238.733 151.474C238.733 151.93 238.733 152.387 238.277 152.387L235.083 153.755L242.84 174.743C242.84 175.199 242.84 175.655 242.383 175.655L238.277 177.024C237.821 177.024 237.365 177.024 237.365 176.568L230.065 155.124L226.871 156.493C226.415 156.493 225.958 156.493 225.958 156.036L224.59 151.93C224.59 151.474 224.59 151.018 225.046 151.018L236.452 146.911C236.908 146.911 237.365 146.911 237.365 147.368ZM205.883 229.493L204.058 229.949C200.865 230.862 197.671 229.493 196.302 226.299L189.002 205.311C188.09 202.118 189.458 198.924 192.652 197.555L194.477 197.099C197.671 196.187 200.865 197.555 202.233 200.749L209.99 221.736C210.902 224.474 209.077 228.124 205.883 229.493ZM195.39 202.118C194.477 202.574 194.021 203.03 194.477 203.943L201.777 224.474C201.777 224.93 202.69 225.386 203.146 224.93H203.602C204.058 224.93 204.515 224.018 204.515 223.561L197.215 203.03C196.758 202.118 195.846 202.118 195.39 202.118ZM220.027 193.905L229.608 219.455C229.608 219.911 229.608 220.368 229.152 220.368L226.415 221.28C225.958 221.28 225.502 221.28 225.502 220.824L216.377 210.786L220.483 222.649C220.483 223.105 220.483 223.561 220.027 223.561L215.921 224.93C215.465 224.93 215.008 224.93 215.008 224.474L205.427 198.924C205.427 198.468 205.427 198.012 205.883 198.012L209.077 197.099C209.533 197.099 209.99 197.099 209.99 197.555L219.571 208.961L215.008 195.73C215.008 195.274 215.008 194.818 215.465 194.818L219.571 193.449C219.571 193.449 220.027 193.449 220.027 193.905ZM242.84 210.33L244.208 214.436C244.208 214.893 244.208 215.349 243.752 215.349L234.171 218.999C233.715 218.999 233.258 218.999 233.258 218.543L223.677 192.993C223.677 192.536 223.677 192.08 224.133 192.08L233.715 188.43C234.171 188.43 234.627 188.43 234.627 188.887L235.996 192.993C235.996 193.449 235.996 193.905 235.54 193.905L230.521 195.73L232.346 200.749L236.908 198.924C237.365 198.924 237.821 198.924 237.821 199.38L239.19 203.486C239.19 203.943 239.19 204.399 238.733 204.399L234.171 206.224L236.452 212.155L241.471 210.33C242.383 209.874 242.84 209.874 242.84 210.33Z" fill="#474747"/>
<g opacity="0.5">
<path d="M158.89 250.026L297.59 133.682C290.746 125.47 289.833 114.976 293.483 105.851C282.533 105.395 272.952 98.551 268.846 88.0573L98.6645 149.651C103.683 163.795 96.3833 179.307 82.2395 184.782L92.7333 213.982L120.108 246.832C131.971 236.795 148.852 238.62 158.89 250.026Z" fill="#5C4C3D"/>
<path opacity="0.5" d="M158.89 250.026L297.59 133.682C290.746 125.47 289.833 114.976 293.483 105.851C282.533 105.395 272.952 98.551 268.846 88.0573L98.6645 149.651C103.683 163.795 96.3833 179.307 82.2395 184.782L92.7333 213.982L120.108 246.832C131.971 236.795 148.852 238.62 158.89 250.026Z" fill="#5C4C3D"/>
</g>
<path d="M282.531 73.4563L274.775 63.875C272.037 66.1562 268.388 65.7 266.106 62.9625C263.825 60.225 264.281 56.575 267.019 54.2937L259.263 44.7125C256.525 46.9938 252.875 46.5375 250.594 43.8C248.312 41.0625 248.769 37.4125 251.506 35.1312L243.75 25.55C241.012 27.8312 237.362 27.375 235.081 24.6375C231.887 22.8125 232.344 19.1625 234.625 16.8813L226.869 7.3C224.131 9.58125 220.481 9.125 218.2 6.84375C207.25 12.3188 193.562 10.0375 184.894 0L46.1937 116.344C56.2312 128.206 54.4062 145.544 43 155.125L105.05 229.494C116.456 219.912 133.794 221.281 143.375 232.688L282.075 116.344C273.863 106.306 273.863 92.1625 281.163 82.125C279.794 79.3875 280.25 75.7375 282.531 73.4563Z" fill="#E7BE4E"/>
<path d="M258.352 106.762L138.815 207.137C132.427 212.612 122.846 211.7 117.371 205.312L68.552 146.912C63.077 140.525 63.9895 130.944 70.377 125.469L189.915 25.0937C196.302 19.6187 205.883 20.5312 211.358 26.9187L260.177 85.3187C265.652 91.7062 264.74 101.287 258.352 106.762ZM75.3958 131.4C72.202 134.137 71.7458 138.7 74.4833 141.894L123.302 200.75C126.04 203.944 130.602 204.4 133.796 201.662L253.333 101.287C256.527 98.55 256.983 93.9875 254.246 90.7937L205.427 31.9375C202.69 28.7437 198.127 28.2875 194.933 31.025L75.3958 131.4Z" fill="#3F72D2"/>
<path d="M142.919 131.402L139.725 134.14C139.269 134.596 138.812 134.14 138.812 134.14L135.163 130.49L132.425 132.315L135.619 136.421V137.333L132.425 140.071C131.969 140.527 131.969 140.071 131.512 140.071L113.719 113.152V112.24L118.738 108.133C119.194 107.677 119.65 107.677 119.65 108.133L142.919 130.49V131.402ZM131.056 126.383L121.931 116.802L121.475 117.258L129.231 127.752L131.056 126.383ZM141.55 102.658L152.044 115.433C154.325 118.171 153.869 121.821 151.131 124.102L145.656 128.665C145.2 129.121 144.744 128.665 144.744 128.665L126.95 107.677C126.494 107.221 126.95 106.765 126.95 106.765L132.425 102.202C135.619 99.9208 139.269 99.9208 141.55 102.658ZM137.444 106.308C136.988 105.852 136.075 105.852 135.619 106.308L134.25 107.221L146.113 121.365L147.481 120.452C147.938 119.996 147.938 119.54 147.481 118.627L137.444 106.308ZM155.238 83.952L173.031 104.94C173.487 105.396 173.031 105.852 173.031 105.852L169.381 108.59C168.925 109.046 168.469 108.59 168.469 108.59L160.256 99.0083L165.275 109.958C165.275 110.415 165.275 110.415 164.819 110.415L155.238 103.571L163.45 113.152C163.906 113.608 163.45 114.065 163.45 114.065L159.8 116.802C159.344 117.258 158.887 116.802 158.887 116.802L141.094 95.8145C140.638 95.3583 141.094 94.902 141.094 94.902L144.288 92.1645C144.744 91.7083 145.2 92.1645 145.2 92.1645L157.519 100.833L151.131 87.1458V86.2333L154.325 83.4958C154.781 83.952 155.238 83.952 155.238 83.952ZM180.788 98.552C181.244 99.0083 180.788 99.4645 180.788 99.4645L177.594 102.202C177.138 102.658 176.681 102.202 176.681 102.202L158.887 81.2145C158.431 80.7583 158.887 80.302 158.887 80.302L162.081 77.5645C162.538 77.1083 162.994 77.5645 162.994 77.5645L180.788 98.552ZM176.225 66.6145L178.962 69.8083C179.419 70.2645 178.962 70.7208 178.962 70.7208L176.225 73.002L190.825 90.3395C191.281 90.7958 190.825 91.252 190.825 91.252L187.631 93.9895H186.719L172.119 76.652L169.381 78.9333C168.925 79.3895 168.469 78.9333 168.469 78.9333L165.731 75.7395C165.275 75.2833 165.731 74.827 165.731 74.827L175.312 67.0708C175.312 66.6145 175.769 66.6145 176.225 66.6145ZM174.856 154.671L173.488 156.04C170.75 158.321 167.1 157.865 164.819 155.127L150.675 138.246C148.394 135.508 148.85 131.858 151.587 129.577L152.956 128.208C155.694 125.927 159.344 126.383 161.625 129.121L175.312 146.002C177.594 148.74 177.137 152.39 174.856 154.671ZM155.238 132.771C154.325 133.227 154.325 134.14 154.781 134.596L168.925 151.021C169.381 151.477 169.838 151.477 170.75 151.021L171.206 150.565C171.663 150.108 171.663 149.196 171.206 148.74L157.062 132.771C156.606 132.315 155.694 132.315 155.238 132.771ZM175.769 116.346L193.562 137.333C194.019 137.79 193.562 138.246 193.562 138.246L191.281 140.071C190.825 140.527 190.369 140.527 190.369 140.071L178.506 133.683L186.719 143.265C187.175 143.721 186.719 144.177 186.719 144.177L183.525 146.915C183.069 147.371 182.613 146.915 182.613 146.915L164.819 125.927C164.363 125.471 164.819 125.015 164.819 125.015L167.1 123.19C167.556 122.733 168.012 122.733 168.012 123.19L180.788 130.49L171.663 119.996C171.206 119.54 171.663 119.083 171.663 119.083L174.856 116.346H175.769ZM202.688 124.102L205.425 127.296C205.881 127.752 205.425 128.208 205.425 128.208L197.669 135.052C197.213 135.508 196.756 135.052 196.756 135.052L178.962 114.065C178.506 113.608 178.962 113.152 178.962 113.152L186.719 106.308C187.175 105.852 187.631 106.308 187.631 106.308L190.369 109.502C190.825 109.958 190.369 110.415 190.369 110.415L186.262 114.065L189.913 118.171L193.562 114.977C194.019 114.521 194.475 114.977 194.475 114.977L197.212 118.171C197.669 118.627 197.212 119.083 197.212 119.083L193.562 122.277L197.669 127.296L201.775 123.646C202.231 123.646 202.688 123.646 202.688 124.102Z" fill="#474747"/>
</g>
<defs>
<clipPath id="clip0_3_336">
<rect width="292" height="292" fill="white" transform="translate(43)"/>
</clipPath>
</defs>
</svg>
